<?xml version="1.0" encoding="utf-8"?>
<!-- Generator: Adobe Illustrator 19.0.0, SVG Export Plug-In . SVG Version: 6.00 Build 0)  -->
<svg version="1.1" id="Calque_1" xmlns="http://www.w3.org/2000/svg" xmlns:xlink="http://www.w3.org/1999/xlink" x="0px" y="0px"
	 viewBox="0 0 653 841.9" style="enable-background:new 0 0 653 841.9;" xml:space="preserve">
<g id="NVCJzW.tif">
	<g id="XMLID_1_">
		<path id="XMLID_16_" d="M611,352.6c0,17,0,34,0,51c-1,8-1.9,16.1-2.9,24.1c-7.4,56.2-34.6,100.4-83,129.7
			c-40.5,24.6-82.1,47.3-123.7,70c-19.1,10.4-39.1,19.1-59.1,27.5c-9.2,3.9-19.5,5.2-29.2,7.6c-9.3,0-18.7,0-28,0
			c-0.9-0.3-1.8-0.8-2.8-0.9c-12.1-0.9-23.7-4.1-34.3-9.8c-15.7-8.4-31-17.5-46.4-26.3c-33.3-18.9-66.8-37.3-99.8-56.6
			c-31.2-18.3-58.6-40.3-76.1-73.6C12,469.6,3.6,443.5,3.7,414.1c0.1-34.3-2.1-68.6-3.2-102.9c-0.8-25.3-1.1-50.6,2.3-75.8
			c7.6-55.9,34.5-99.7,82.4-129.3c33-20.4,67-39.1,101-57.6c24.8-13.5,49.9-26.8,75.9-37.7c38.5-16.2,76.8-14.3,113.6,6.9
			c41.1,23.6,82.5,46.7,123.5,70.5c14.5,8.4,28.3,18.1,42.1,27.7c27.9,19.5,43.6,48.1,56.4,78.3c4.2,9.8,7.1,20.7,7.9,31.2
			c2.1,31.2,2.9,62.5,4.1,93.8C610.2,330.4,610.6,341.5,611,352.6z"/>
	</g>
</g>
</svg>
